<svg xmlns="http://www.w3.org/2000/svg" width="188.71" height="40" viewBox="0 0 188.71 40">
  <g id="그룹_15099" data-name="그룹 15099" transform="translate(-236.779 -218.466)">
    <g id="그룹_15100" data-name="그룹 15100">
      <path id="사각형_12227" data-name="사각형 12227" d="M2.745,0H9.576A2.744,2.744,0,0,1,12.32,2.744v6.83a2.745,2.745,0,0,1-2.745,2.745H2.745A2.745,2.745,0,0,1,0,9.574V2.745A2.745,2.745,0,0,1,2.745,0Z" transform="translate(250.62 218.466)" fill="#dc277e"/>
      <path id="패스_14462" data-name="패스 14462" d="M253.762,226.738a2.742,2.742,0,0,1,0,3.881l-4.829,4.831a2.745,2.745,0,0,1-3.882,0l-4.83-4.831a2.743,2.743,0,0,1,0-3.881l4.829-4.829a2.745,2.745,0,0,1,3.882,0Z" fill="#e5505f"/>
      <path id="사각형_12228" data-name="사각형 12228" d="M2.746,0H9.574A2.746,2.746,0,0,1,12.32,2.746V9.575a2.744,2.744,0,0,1-2.744,2.744H2.745A2.745,2.745,0,0,1,0,9.574V2.746A2.746,2.746,0,0,1,2.746,0Z" transform="translate(236.779 232.306)" fill="#f48300"/>
      <path id="사각형_12229" data-name="사각형 12229" d="M2.745,0h6.83A2.745,2.745,0,0,1,12.32,2.745v6.83a2.745,2.745,0,0,1-2.745,2.745H2.744A2.744,2.744,0,0,1,0,9.575V2.745A2.745,2.745,0,0,1,2.745,0Z" transform="matrix(0.707, -0.707, 0.707, 0.707, 238.281, 248.253)" fill="#3faea9"/>
      <path id="사각형_12230" data-name="사각형 12230" d="M2.745,0h6.83A2.745,2.745,0,0,1,12.32,2.745V9.576A2.744,2.744,0,0,1,9.576,12.32H2.744A2.744,2.744,0,0,1,0,9.576V2.745A2.745,2.745,0,0,1,2.745,0Z" transform="translate(250.62 246.146)" fill="#00a8ea"/>
      <path id="패스_14463" data-name="패스 14463" d="M259.8,250.193a2.749,2.749,0,0,1,0-3.882l4.831-4.83a2.744,2.744,0,0,1,3.878,0l4.832,4.83a2.741,2.741,0,0,1,0,3.882l-4.832,4.83a2.742,2.742,0,0,1-3.878,0Z" fill="#2d79be"/>
      <path id="패스_14464" data-name="패스 14464" d="M268.5,235.449a2.74,2.74,0,0,1-3.878,0l-4.831-4.83a2.743,2.743,0,0,1,0-3.882l4.829-4.829a2.744,2.744,0,0,1,3.88,0l4.832,4.829a2.747,2.747,0,0,1,0,3.882Z" fill="#9e438c"/>
      <g id="그룹_15099-2" data-name="그룹 15099" style="mix-blend-mode: multiply;isolation: isolate">
        <path id="패스_14465" data-name="패스 14465" d="M253.364,230.785h.234l.164-.166a2.742,2.742,0,0,0,0-3.881l-3.142-3.144v4.446A2.744,2.744,0,0,0,253.364,230.785Z" fill="#8f77b3"/>
        <path id="패스_14466" data-name="패스 14466" d="M248.933,235.45l.166-.165v-.234a2.745,2.745,0,0,0-2.746-2.745h-4.447l3.145,3.144A2.745,2.745,0,0,0,248.933,235.45Z" fill="#8f77b3"/>
        <path id="패스_14467" data-name="패스 14467" d="M249.1,241.881v-.234l-.166-.165a2.747,2.747,0,0,0-3.882,0l-3.145,3.143h4.447A2.744,2.744,0,0,0,249.1,241.881Z" fill="#8f77b3"/>
        <path id="패스_14468" data-name="패스 14468" d="M253.763,246.311l-.165-.165h-.234a2.745,2.745,0,0,0-2.744,2.745v4.446l3.143-3.144A2.745,2.745,0,0,0,253.763,246.311Z" fill="#8f77b3"/>
        <path id="패스_14469" data-name="패스 14469" d="M260.2,246.146h-.234l-.166.165a2.749,2.749,0,0,0,0,3.882l3.144,3.144v-4.446A2.745,2.745,0,0,0,260.2,246.146Z" fill="#8f77b3"/>
        <path id="패스_14470" data-name="패스 14470" d="M259.8,230.619l.166.166h.234a2.745,2.745,0,0,0,2.744-2.745v-4.446l-3.144,3.143A2.743,2.743,0,0,0,259.8,230.619Z" fill="#8f77b3"/>
      </g>
    </g>
    <g id="그룹_15101" data-name="그룹 15101">
      <path id="패스_14471" data-name="패스 14471" d="M288.277,229.758h-2.563v18.2h10.863v-2.567h-8.3Z" fill="#5d5c5c"/>
      <path id="패스_14472" data-name="패스 14472" d="M305.939,231.344a7.317,7.317,0,0,1,5.154,2.044l.189.176,1.813-1.815-.2-.189a9.854,9.854,0,0,0-6.958-2.779,9.749,9.749,0,0,0,0,19.5A9.845,9.845,0,0,0,312.9,245.5l.083-.08v-7.829h-7.31v2.563h4.747v4.1a7.168,7.168,0,0,1-4.478,1.466,7.187,7.187,0,1,1,0-14.373Z" fill="#5d5c5c"/>
      <path id="패스_14473" data-name="패스 14473" d="M359.236,233.841a7.219,7.219,0,1,0,6.1,11.067l.165-.259-2.364-1.045-.126.174a4.65,4.65,0,0,1-8.245-1.433h11.572l.033-.228a7.088,7.088,0,0,0,.085-1.057A7.226,7.226,0,0,0,359.236,233.841Zm0,2.566a4.677,4.677,0,0,1,4.474,3.369h-8.947A4.679,4.679,0,0,1,359.236,236.407Z" fill="#5d5c5c"/>
      <path id="패스_14474" data-name="패스 14474" d="M381.342,233.841a5.225,5.225,0,0,0-3.869,1.7,4.606,4.606,0,0,0-6.762-.425v-1.109h-2.565v13.948h2.565V239.1a2.689,2.689,0,0,1,5.377-.005v8.869h2.566V239.1a2.688,2.688,0,1,1,5.376,0v8.864H386.6V239.1A5.262,5.262,0,0,0,381.342,233.841Z" fill="#5d5c5c"/>
      <path id="패스_14475" data-name="패스 14475" d="M344.54,233.841a5.791,5.791,0,0,0-4.237,1.853v-5.936h-2.566v18.2H340.3v-7.822a3.73,3.73,0,1,1,7.46,0v7.822h2.566v-8.331A5.8,5.8,0,0,0,344.54,233.841Z" fill="#5d5c5c"/>
      <path id="패스_14476" data-name="패스 14476" d="M419.181,233.846a5.344,5.344,0,0,0-3.716,1.79V234.01H412.9v13.947h2.566v-7.816a3.73,3.73,0,0,1,7.459,0v7.816h2.565v-7.816A6.174,6.174,0,0,0,419.181,233.846Z" fill="#5d5c5c"/>
      <path id="패스_14477" data-name="패스 14477" d="M401.269,228.781a9.748,9.748,0,1,0,9.747,9.749A9.761,9.761,0,0,0,401.269,228.781Zm0,16.958a7.21,7.21,0,1,1,7.209-7.209A7.219,7.219,0,0,1,401.269,245.739Z" fill="#5d5c5c"/>
      <path id="패스_14478" data-name="패스 14478" d="M329.1,231.344a7.234,7.234,0,0,1,5.158,2.044l.188.176,1.812-1.815-.2-.189a9.855,9.855,0,0,0-6.959-2.779,9.748,9.748,0,1,0,0,19.5,9.848,9.848,0,0,0,6.959-2.779l.2-.188-1.812-1.815-.191.177a7.217,7.217,0,0,1-5.155,2.042,7.185,7.185,0,1,1,0-14.37Z" fill="#5d5c5c"/>
    </g>
  </g>
</svg>
