<?xml version="1.0" encoding="utf-8"?>
<!-- Generator: Adobe Illustrator 26.0.3, SVG Export Plug-In . SVG Version: 6.00 Build 0)  -->
<svg version="1.1" id="Layer_1" xmlns="http://www.w3.org/2000/svg" xmlns:xlink="http://www.w3.org/1999/xlink" x="0px" y="0px"
	 viewBox="0 0 379.19 106.8" style="enable-background:new 0 0 379.19 106.8;" xml:space="preserve">
<style type="text/css">
	.st0{fill:#6F6F6E;}
	.st1{fill:#BD0738;}
	.st2{fill:#FFFFFF;}
</style>
<g>
	<g>
		<path class="st0" d="M113.77,93.06c0,1.41-0.16,3.2-0.41,4.51h-2.88V87.05h-2.41c-0.47,3.2-2.41,5.48-6.52,5.48
			c-4.73,0-6.57-3.1-6.57-7.08c0-3.91,1.85-7.01,6.57-7.01c4.13,0,6.11,2.35,6.55,5.54h2.38V77.4h3.29V93.06z M98.43,85.45
			c0,2.94,1.03,4.35,3.19,4.35c2.13,0,3.1-1.41,3.1-4.35c0-2.82-0.97-4.23-3.1-4.23C99.47,81.22,98.43,82.63,98.43,85.45z
			 M120.6,105.99h-16.28c-1.47,0-2.16-0.62-2.16-2.13v-7.95h3.54v6.73c0,0.44,0.06,0.47,0.47,0.47h14.43V105.99z M119.57,93.25
			c0,1.53-0.12,3.6-0.44,4.88h-2.88V77.03h3.32V93.25z"/>
		<path class="st0" d="M124.51,94.31c4.92-2.19,6.7-5.42,6.7-10.62v-2.13h-5.86v-2.82h15.15v2.82h-5.7v2.1
			c0,5.1,2.38,7.95,7.08,9.74l-1.72,2.97c-2.85-1.28-5.64-3.41-6.82-6.48c-1.25,3.04-4.1,5.36-7.45,6.73
			C125.45,95.84,124.95,95.09,124.51,94.31z M144.01,77.03h3.48v23.08c0,1.79-0.19,4.07-0.44,5.54h-3.04V77.03z"/>
		<path class="st0" d="M171.84,105.64V94.22c-1.57,0.84-4.2,1.5-6.92,1.5h-8.36c-1.75,0-2.5-0.75-2.5-2.57V78.59h3.45v13.53
			c0,0.59,0.12,0.69,0.72,0.69h7.39c2.38,0,4.63-0.53,6.23-1.31V77.03h3.48v23.08c0,1.82-0.19,4.07-0.47,5.54H171.84z"/>
		<path class="st0" d="M200.52,88.27h-4.23c-0.56,3.47-3.07,6.23-7.73,6.23c-5.26,0-7.77-3.63-7.77-7.8c0-4.07,2.51-7.7,7.77-7.7
			c4.7,0,7.2,2.82,7.73,6.26h4.23v-8.24H204v23.08c0,1.79-0.19,4.07-0.47,5.54h-3.01V88.27z M192.94,86.7
			c0-3.13-1.59-4.73-4.32-4.73c-2.75,0-4.35,1.6-4.35,4.73c0,3.26,1.6,4.85,4.35,4.85C191.35,91.55,192.94,89.96,192.94,86.7z"/>
		<path class="st0" d="M231.68,90.02c0,1.13-0.12,2.79-0.38,4.1h-3.07v-2.63c-1.29,0.81-3.63,1.47-6.2,1.47h-10.09
			c-1.38,0-2-0.66-2-2.13v-6.79h9.39v-3.22h-9.46v-2.66h12.96v4.95c0,1.47-0.22,2.79-0.62,3.54h-8.83v2.97
			c0,0.56,0.12,0.63,0.56,0.63h8.24c2.41,0,4.63-0.53,6.04-1.29V77.03h3.44V90.02z M223.51,106.8c-5.73,0-7.83-2.79-7.83-6.11
			c0-3.22,2.1-6.07,7.83-6.07c5.76,0,7.92,2.85,7.92,6.07C231.43,104.02,229.27,106.8,223.51,106.8z M223.54,97.35
			c-2.85,0-4.32,1.22-4.32,3.35c0,2.29,1.47,3.45,4.32,3.45c2.88,0,4.35-1.16,4.35-3.45C227.89,98.57,226.42,97.35,223.54,97.35z"/>
		<path class="st0" d="M236.72,100.54v-2.88h11.15v-6.54h3.54v6.54h11.12v2.88H236.72z M258.95,91.9c-3.73-0.78-7.52-2.69-9.2-5.98
			c-1.44,2.94-4.79,5.04-9.3,6.01l-1.04-2.47c5.95-1.44,8.33-4.2,8.33-8.77v-3.1h3.54v3.04c0,4.48,3.29,7.26,9.05,8.23
			C259.89,89.89,259.39,90.9,258.95,91.9z"/>
		<path class="st0" d="M273.78,81.66v1.85c0,5.2,1.54,7.95,5.61,9.77l-1.72,2.88c-2.22-1.16-4.38-3.2-5.32-5.76
			c-0.94,2.63-2.98,4.63-5.7,5.95l-1.35-2.19c4.04-2.13,5.07-5.23,5.07-10.62v-1.88h-4.36v-2.82h12.15v2.82H273.78z M280.2,77.46
			h3.26v8.64h3.1v-9.08h3.35v22.79c0,1.85-0.12,4.29-0.44,5.82h-2.91V88.99h-3.1v10.37c0,1.69-0.16,3.79-0.41,5.32h-2.85V77.46z"/>
		<path class="st0" d="M294.31,94.34c5.01-2.26,6.7-5.64,6.7-10.99v-5.04h3.5v5.01c0,5.17,2.16,8.33,7.14,10.18l-1.69,2.82
			c-3.07-1.25-5.64-3.54-6.86-6.58c-1.22,2.94-3.79,5.26-7.39,6.92L294.31,94.34z M313.44,77.03h3.48v8.96h4.57v2.91h-4.57v11.21
			c0,1.79-0.19,4.07-0.44,5.54h-3.04V77.03z"/>
		<path class="st0" d="M332.87,78.25c4.76,0,6.92,2.32,7.39,5.29h4.63v-6.51h3.48v15.75h-3.48v-6.36h-4.63
			c-0.47,3.1-2.6,5.35-7.39,5.35c-5.48,0-7.45-3.01-7.45-6.79C325.42,81.32,327.39,78.25,332.87,78.25z M332.87,89.08
			c2.63,0,4.1-1.19,4.1-4.1c0-2.75-1.47-4.07-4.1-4.07c-2.6,0-4.01,1.32-4.01,4.07C328.86,87.89,330.27,89.08,332.87,89.08z
			 M331.68,94.62h3.47v3.32h9.74v-3.32h3.48v12.18h-14.62c-1.35,0-2.07-0.53-2.07-2V94.62z M344.89,103.95v-3.13h-9.74v2.57
			c0,0.41,0.06,0.56,0.54,0.56H344.89z"/>
		<path class="st0" d="M353.36,92.62h25.83v2.85h-11.15v4.63c0,1.66-0.22,3.82-0.47,5.26h-3v-9.89h-11.21V92.62z M357.68,77.34h3.41
			v3.44h10.46v-3.44h3.41v12.37h-15.12c-1.53,0-2.16-0.72-2.16-2.29V77.34z M371.55,86.89v-3.26h-10.46v2.69
			c0,0.5,0.09,0.56,0.47,0.56H371.55z"/>
	</g>
	<g>
		<g>
			<path class="st1" d="M39.18,78.35c21.64,0,39.18-17.54,39.18-39.18C78.36,17.54,60.81,0,39.18,0C17.54,0,0,17.54,0,39.17
				C0,60.82,17.54,78.35,39.18,78.35"/>
			<polygon class="st2" points="37.62,21.99 37.62,56.33 48.55,56.33 48.55,53.26 40.75,53.26 40.75,21.99 			"/>
			<path class="st2" d="M26.67,31.36c2.59,0,4.7-2.1,4.7-4.69c0-2.59-2.11-4.69-4.7-4.69c-2.59,0-4.69,2.1-4.69,4.69
				C21.98,29.25,24.08,31.36,26.67,31.36"/>
			<path class="st2" d="M40.75,6.4c-0.41-0.02-1.19-0.03-1.57-0.03c-18.08,0-32.79,14.72-32.79,32.8c0,8.75,3.42,16.99,9.61,23.19
				c6.2,6.2,14.44,9.6,23.19,9.6c8.77,0,17-3.4,23.2-9.6c6.18-6.19,9.6-14.43,9.6-23.19v-1.5l-1.32,0.01h-22.1v3.05h20.29v0.45
				C67.8,56.64,54.91,68.9,39.18,68.9c-7.93,0-15.4-3.1-21.01-8.71c-5.62-5.61-8.71-13.08-8.71-21.02c0-7.94,3.09-15.41,8.71-21.03
				c5.62-5.62,13.08-8.71,21.01-8.71c0.36,0,1.2,0.01,1.57,0.03V6.4z"/>
		</g>
		<g>
			<polygon class="st0" points="107.98,13.34 96.18,13.34 96.18,64.38 132.39,64.38 132.39,54.44 107.98,54.44 			"/>
			<path class="st0" d="M158.34,44.92h9.6v8.92c-1.77,0.67-5.22,1.35-8.51,1.35c-10.61,0-14.15-5.39-14.15-16.34
				c0-10.44,3.37-16.59,13.98-16.59c5.9,0,9.26,1.85,12.04,5.38l7.33-6.73c-4.47-6.4-12.29-8.34-19.63-8.34
				c-16.51,0-25.18,9.01-25.18,26.18c0,17.1,7.84,26.36,25.1,26.36c7.92,0,15.67-2.02,19.88-4.96V35.41h-20.47V44.92z"/>
			<path class="st0" d="M201.69,49.21h-12.46v6.72h19.9c5.51,0,11.96-1.27,15.43-3.31v-6.84c-3.53,1.99-8.98,3.42-14.22,3.42v-6.12
				h-8.65V49.21z M222.05,22.57h-32.97v6.67h32.97V22.57z M210.62,35.04c0,2.54-1.37,4.36-4.69,4.36c-3.36,0-4.79-1.82-4.79-4.36
				c0-2.59,1.43-4.3,4.79-4.3C209.24,30.73,210.62,32.44,210.62,35.04 M213.48,13.2h-5.95c-3.58,0-7.95-0.6-10.04-1.43l-1.27,6.95
				c2.38,0.72,6.34,1.16,9.15,1.16h8.1V13.2z M241.39,28.36h-8.33v-15.6h-8.82V64.2h7.72c0.72-3.03,1.1-7.55,1.1-11.63V35.76h8.33
				V28.36z M192.76,35.31c0,6.17,3.8,10.03,13.07,10.03c9.31,0,13.11-3.86,13.11-10.03c0-5.79-5.02-9.87-13.11-9.87
				C197.77,25.45,192.76,29.52,192.76,35.31 M264.49,33.76c0,2.21-1.43,3.97-4.69,3.97c-3.42,0-4.74-1.76-4.74-3.97
				c0-2.15,1.33-3.92,4.74-3.92C263.06,29.85,264.49,31.62,264.49,33.76 M295.04,24.28h-8.39V12.76h-8.77v30.93h8.77V31.45h8.39
				V24.28z M286.65,46.23h-34.18v6.78h25.41v11.47h7.78c0.71-2.87,0.98-6.73,0.98-9.27V46.23z M247.17,33.99
				c0,5.79,3.64,9.7,12.62,9.7c9.05,0,12.68-3.97,12.68-9.7c0-5.3-4.85-9.48-12.68-9.48C252.08,24.51,247.17,28.69,247.17,33.99
				 M275.63,22.02h-32.26v6.51h32.26V22.02z M267.63,12.87h-6.01c-3.59,0-7.77-0.61-10.14-1.49l-1.22,7
				c2.37,0.82,6.18,1.15,8.65,1.15h8.72V12.87z"/>
		</g>
	</g>
</g>
</svg>
