<svg id="그룹_2511" data-name="그룹 2511" xmlns="http://www.w3.org/2000/svg" width="28" height="28.067" viewBox="0 0 28 28.067">
  <path id="패스_2501" data-name="패스 2501" d="M0,0H28V28H0Z" fill="none"/>
  <path id="패스_2394" data-name="패스 2394" d="M26.175,22.656H4.931A1.937,1.937,0,0,1,3,20.725V16.863A3.874,3.874,0,0,1,6.863,13H24.244a3.874,3.874,0,0,1,3.863,3.863v3.863A1.937,1.937,0,0,1,26.175,22.656Z" transform="translate(-1.953 0.798)" fill="none" stroke="#363e47" stroke-linecap="round" stroke-linejoin="round" stroke-width="1.5"/>
  <path id="패스_2395" data-name="패스 2395" d="M25.313,12.759H6L7.931,8.318A3.815,3.815,0,0,1,11.408,6h8.4a4.063,4.063,0,0,1,3.573,2.318Z" transform="translate(-2.058 1.039)" fill="none" stroke="#363e47" stroke-linecap="round" stroke-linejoin="round" stroke-width="1.5"/>
  <path id="패스_2396" data-name="패스 2396" d="M9.794,23H4v1.931a1.937,1.937,0,0,0,1.931,1.931H7.863a1.937,1.937,0,0,0,1.931-1.931Z" transform="translate(-1.988 0.455)" fill="none" stroke="#363e47" stroke-linecap="round" stroke-linejoin="round" stroke-width="1.5"/>
  <path id="패스_2397" data-name="패스 2397" d="M27.794,23H22v1.931a1.937,1.937,0,0,0,1.931,1.931h1.931a1.937,1.937,0,0,0,1.931-1.931Z" transform="translate(-2.606 0.455)" fill="none" stroke="#363e47" stroke-linecap="round" stroke-linejoin="round" stroke-width="1.5"/>
  <line id="선_464" data-name="선 464" x2="3.283" transform="translate(1.047 13.298)" fill="none" stroke="#363e47" stroke-linecap="round" stroke-linejoin="round" stroke-width="1.5"/>
  <line id="선_465" data-name="선 465" x2="3" transform="translate(23.336 13.108)" fill="none" stroke="#363e47" stroke-linecap="round" stroke-linejoin="round" stroke-width="1.5"/>
  <path id="패스_2398" data-name="패스 2398" d="M20.656,22.863H11l1.352-2.8A1.824,1.824,0,0,1,14.09,19h3.38a1.824,1.824,0,0,1,1.738,1.062Z" transform="translate(-2.229 0.592)" fill="none" stroke="#363e47" stroke-linecap="round" stroke-linejoin="round" stroke-width="1.5"/>
  <line id="선_466" data-name="선 466" x2="3" transform="translate(4.336 19.108)" fill="none" stroke="#363e47" stroke-linecap="round" stroke-linejoin="round" stroke-width="1.5"/>
  <line id="선_467" data-name="선 467" x2="3" transform="translate(20.336 19.108)" fill="none" stroke="#363e47" stroke-linecap="round" stroke-linejoin="round" stroke-width="1.5"/>
</svg>
